<?xml version="1.0" encoding="UTF-8" standalone="no"?>
<svg
   xmlns:dc="http://purl.org/dc/elements/1.1/"
   xmlns:cc="http://creativecommons.org/ns#"
   xmlns:rdf="http://www.w3.org/1999/02/22-rdf-syntax-ns#"
   xmlns:svg="http://www.w3.org/2000/svg"
   xmlns="http://www.w3.org/2000/svg"
   xmlns:xlink="http://www.w3.org/1999/xlink"
   viewBox="0 0 555.50665 341.67999"
   height="341.67999"
   width="555.50665"
   xml:space="preserve"
   id="svg834"
   version="1.1"><metadata
     id="metadata840"><rdf:RDF><cc:Work
         rdf:about=""><dc:format>image/svg+xml</dc:format><dc:type
           rdf:resource="http://purl.org/dc/dcmitype/StillImage" /><dc:title></dc:title></cc:Work></rdf:RDF></metadata><defs
     id="defs838" /><g
     transform="matrix(1.3333333,0,0,-1.3333333,0,341.68)"
     id="g842"><g
       transform="scale(0.1)"
       id="g844"><path
         transform="matrix(7.5000002,0,0,-7.5000002,0,2562.6001)"
         id="path877"
         d="m 123.35383,297.71147 c -17.73811,-4.02623 -32.244064,-17.30899 -37.571233,-34.40312 -2.044485,-6.56047 -2.41122,-18.80114 -0.769552,-25.68566 1.618827,-6.78873 6.592552,-16.24919 11.347736,-21.58439 9.359949,-10.50163 22.453999,-16.2992 36.770669,-16.28073 14.38845,0.0186 25.02895,4.38177 35.00524,14.35413 10.07656,10.07257 14.68795,21.00775 14.68795,34.83009 0,22.15318 -14.40318,41.39882 -35.88541,47.95038 -6.25241,1.90683 -17.12949,2.28468 -23.5854,0.8193 z"
         style="opacity:0.98400005;fill:none;fill-opacity:0.4879227;stroke:none;stroke-width:0.87070006;stroke-opacity:1" /><path
         transform="matrix(7.5000002,0,0,-7.5000002,0,2562.6001)"
         id="path879"
         d="m 123.35383,297.71147 c -17.73811,-4.02623 -32.244064,-17.30899 -37.571233,-34.40312 -2.044485,-6.56047 -2.41122,-18.80114 -0.769552,-25.68566 1.618827,-6.78873 6.592552,-16.24919 11.347736,-21.58439 9.359949,-10.50163 22.453999,-16.2992 36.770669,-16.28073 14.38845,0.0186 25.02895,4.38177 35.00524,14.35413 10.07656,10.07257 14.68795,21.00775 14.68795,34.83009 0,22.15318 -14.40318,41.39882 -35.88541,47.95038 -6.25241,1.90683 -17.12949,2.28468 -23.5854,0.8193 z"
         style="opacity:0.98400005;fill:none;fill-opacity:0.4879227;stroke:none;stroke-width:0.87070006;stroke-opacity:1" /><path
         transform="matrix(7.5000002,0,0,-7.5000002,0,2562.6001)"
         id="path881"
         d="m 123.35383,297.71147 c -17.73811,-4.02623 -32.244064,-17.30899 -37.571233,-34.40312 -2.044485,-6.56047 -2.41122,-18.80114 -0.769552,-25.68566 1.618827,-6.78873 6.592552,-16.24919 11.347736,-21.58439 9.359949,-10.50163 22.453999,-16.2992 36.770669,-16.28073 14.38845,0.0186 25.02895,4.38177 35.00524,14.35413 10.07656,10.07257 14.68795,21.00775 14.68795,34.83009 0,22.15318 -14.40318,41.39882 -35.88541,47.95038 -6.25241,1.90683 -17.12949,2.28468 -23.5854,0.8193 z"
         style="opacity:0.98400005;fill:none;fill-opacity:0.4879227;stroke:none;stroke-width:0.87070006;stroke-opacity:1" /><path
         transform="matrix(7.5000002,0,0,-7.5000002,0,2562.6001)"
         id="path883"
         d="m 123.35383,297.71147 c -17.73811,-4.02623 -32.244064,-17.30899 -37.571233,-34.40312 -2.044485,-6.56047 -2.41122,-18.80114 -0.769552,-25.68566 1.618827,-6.78873 6.592552,-16.24919 11.347736,-21.58439 9.359949,-10.50163 22.453999,-16.2992 36.770669,-16.28073 14.38845,0.0186 25.02895,4.38177 35.00524,14.35413 10.07656,10.07257 14.68795,21.00775 14.68795,34.83009 0,22.15318 -14.40318,41.39882 -35.88541,47.95038 -6.25241,1.90683 -17.12949,2.28468 -23.5854,0.8193 z"
         style="opacity:0.98400005;fill:none;fill-opacity:0.4879227;stroke:none;stroke-width:0.87070006;stroke-opacity:1" /><path
         transform="matrix(7.5000002,0,0,-7.5000002,0,2562.6001)"
         id="path885"
         d="m 444.57946,297.70652 c -18.19654,-4.1082 -33.16503,-18.39816 -37.89692,-36.17906 -2.11892,-7.96221 -1.67834,-19.72672 1.04767,-27.97475 4.56431,-13.81018 15.94559,-25.74406 29.39646,-30.82375 7.4777,-2.82394 20.54093,-3.81995 28.21335,-2.15113 8.80175,1.91446 17.131,6.5555 24.0465,13.39867 22.80301,22.56448 19.05557,59.03434 -7.90606,76.94127 -10.04659,6.67258 -25.12697,9.44694 -36.901,6.78875 z"
         style="opacity:0.98400005;fill:none;fill-opacity:0.4879227;stroke:none;stroke-width:0.87070006;stroke-opacity:1" /><path
         transform="matrix(7.5000002,0,0,-7.5000002,0,2562.6001)"
         id="path887"
         d="m 444.57946,297.70652 c -18.19654,-4.1082 -33.16503,-18.39816 -37.89692,-36.17906 -2.11892,-7.96221 -1.67834,-19.72672 1.04767,-27.97475 4.56431,-13.81018 15.94559,-25.74406 29.39646,-30.82375 7.4777,-2.82394 20.54093,-3.81995 28.21335,-2.15113 8.80175,1.91446 17.131,6.5555 24.0465,13.39867 22.80301,22.56448 19.05557,59.03434 -7.90606,76.94127 -10.04659,6.67258 -25.12697,9.44694 -36.901,6.78875 z"
         style="opacity:0.98400005;fill:none;fill-opacity:0.4879227;stroke:none;stroke-width:0.87070006;stroke-opacity:1" /><use
         transform="translate(-2377.9478,-166.41092)"
         height="100%"
         width="100%"
         y="0"
         x="0"
         xlink:href="#path887"
         id="use889" /><use
         transform="translate(-2423.6892,97.10093)"
         height="100%"
         width="100%"
         y="0"
         x="0"
         xlink:href="#path887"
         id="use891" /><use
         transform="translate(-2341.8796,181.76253)"
         height="100%"
         width="100%"
         y="0"
         x="0"
         xlink:href="#path887"
         id="use893" /><use
         transform="translate(-2166.6942,12.584504)"
         height="100%"
         width="100%"
         y="0"
         x="0"
         xlink:href="#path887"
         id="use895" /><use
         transform="translate(-2110.2417,15.770393)"
         height="100%"
         width="100%"
         y="0"
         x="0"
         xlink:href="#path887"
         id="use897" /><use
         transform="translate(-1896.2661,60.238483)"
         height="100%"
         width="100%"
         y="0"
         x="0"
         xlink:href="#path887"
         id="use899" /><use
         transform="translate(-1801.3277,118.3965)"
         height="100%"
         width="100%"
         y="0"
         x="0"
         xlink:href="#path887"
         id="use901" /><use
         transform="translate(-1886.674,1.770758)"
         height="100%"
         width="100%"
         y="0"
         x="0"
         xlink:href="#path887"
         id="use903" /><use
         transform="translate(-1685.6808,307.18732)"
         height="100%"
         width="100%"
         y="0"
         x="0"
         xlink:href="#path887"
         id="use905" /><use
         transform="translate(-1999.1362,-0.45154964)"
         height="100%"
         width="100%"
         y="0"
         x="0"
         xlink:href="#path887"
         id="use907" /><use
         transform="translate(-1903.4089,230.03129)"
         height="100%"
         width="100%"
         y="0"
         x="0"
         xlink:href="#path887"
         id="use909" /><use
         transform="translate(-1770.1886,362.00735)"
         height="100%"
         width="100%"
         y="0"
         x="0"
         xlink:href="#path887"
         id="use911" /><use
         transform="translate(-1446.881,311.26461)"
         height="100%"
         width="100%"
         y="0"
         x="0"
         xlink:href="#path887"
         id="use913" /><use
         transform="translate(-1434.8179,183.46855)"
         height="100%"
         width="100%"
         y="0"
         x="0"
         xlink:href="#path887"
         id="use915" /><use
         transform="translate(-1555.2516,9.9804986)"
         height="100%"
         width="100%"
         y="0"
         x="0"
         xlink:href="#path887"
         id="use917" /><use
         transform="translate(-1454.3127,147.9787)"
         height="100%"
         width="100%"
         y="0"
         x="0"
         xlink:href="#path887"
         id="use919" /><use
         transform="translate(-1732.8245,186.69328)"
         height="100%"
         width="100%"
         y="0"
         x="0"
         xlink:href="#path887"
         id="use921" /><use
         transform="translate(-1694.7494,138.22323)"
         height="100%"
         width="100%"
         y="0"
         x="0"
         xlink:href="#path887"
         id="use923" /><use
         transform="translate(-1960.7084,91.308101)"
         height="100%"
         width="100%"
         y="0"
         x="0"
         xlink:href="#path887"
         id="use925" /><use
         transform="translate(-1726.2002,141.2594)"
         height="100%"
         width="100%"
         y="0"
         x="0"
         xlink:href="#path887"
         id="use927" /><use
         transform="translate(-2118.234,204.51328)"
         height="100%"
         width="100%"
         y="0"
         x="0"
         xlink:href="#path887"
         id="use929" /><use
         transform="translate(-2003.5133,32.184126)"
         height="100%"
         width="100%"
         y="0"
         x="0"
         xlink:href="#path887"
         id="use931" /><use
         transform="translate(-2226.4121,-14.899975)"
         height="100%"
         width="100%"
         y="0"
         x="0"
         xlink:href="#path887"
         id="use933" /><use
         transform="translate(-2160.3176,151.38394)"
         height="100%"
         width="100%"
         y="0"
         x="0"
         xlink:href="#path887"
         id="use935" /><use
         transform="translate(-2274.2445,180.67703)"
         height="100%"
         width="100%"
         y="0"
         x="0"
         xlink:href="#path887"
         id="use937" /><use
         transform="translate(-2441.285,341.91701)"
         height="100%"
         width="100%"
         y="0"
         x="0"
         xlink:href="#path887"
         id="use939" /><use
         transform="translate(-2609.0033,509.91968)"
         height="100%"
         width="100%"
         y="0"
         x="0"
         xlink:href="#path887"
         id="use941" /><use
         transform="translate(-1964.4908,857.755)"
         height="100%"
         width="100%"
         y="0"
         x="0"
         xlink:href="#path887"
         id="use943" /><use
         transform="translate(-1800.9262,1014.4265)"
         height="100%"
         width="100%"
         y="0"
         x="0"
         xlink:href="#path887"
         id="use945" /><use
         transform="translate(-1426.6559,839.28001)"
         height="100%"
         width="100%"
         y="0"
         x="0"
         xlink:href="#path887"
         id="use947" /><use
         transform="translate(-1427.9148,535.42441)"
         height="100%"
         width="100%"
         y="0"
         x="0"
         xlink:href="#path887"
         id="use949" /><use
         transform="translate(-1591.9717,89.031644)"
         height="100%"
         width="100%"
         y="0"
         x="0"
         xlink:href="#path887"
         id="use951" /><use
         transform="translate(-1617.0915,-170.22943)"
         height="100%"
         width="100%"
         y="0"
         x="0"
         xlink:href="#path887"
         id="use953" /><use
         transform="translate(-2166.839,-310.00266)"
         height="100%"
         width="100%"
         y="0"
         x="0"
         xlink:href="#path887"
         id="use955" /><use
         transform="translate(-2410.8306,-452.27076)"
         height="100%"
         width="100%"
         y="0"
         x="0"
         xlink:href="#path887"
         id="use957" /><use
         transform="translate(-2581.3776,-72.189679)"
         height="100%"
         width="100%"
         y="0"
         x="0"
         xlink:href="#path887"
         id="use959" /><use
         transform="translate(-2717.5794,166.89799)"
         height="100%"
         width="100%"
         y="0"
         x="0"
         xlink:href="#path887"
         id="use961" /><use
         transform="translate(-2376.325,251.46091)"
         height="100%"
         width="100%"
         y="0"
         x="0"
         xlink:href="#path887"
         id="use963" /><use
         transform="translate(-2381.4112,624.47232)"
         height="100%"
         width="100%"
         y="0"
         x="0"
         xlink:href="#path887"
         id="use965" /><use
         transform="translate(-2360.1531,532.11106)"
         height="100%"
         width="100%"
         y="0"
         x="0"
         xlink:href="#path887"
         id="use967" /><use
         transform="translate(-2128.7587,820.55446)"
         height="100%"
         width="100%"
         y="0"
         x="0"
         xlink:href="#path887"
         id="use969" /><use
         transform="translate(-2030.4773,953.00157)"
         height="100%"
         width="100%"
         y="0"
         x="0"
         xlink:href="#path887"
         id="use971" /><use
         transform="translate(-1602.705,532.94088)"
         height="100%"
         width="100%"
         y="0"
         x="0"
         xlink:href="#path887"
         id="use973" /><use
         transform="translate(-1656.1479,798.34402)"
         height="100%"
         width="100%"
         y="0"
         x="0"
         xlink:href="#path887"
         id="use975" /><use
         transform="translate(-1443.9687,439.61722)"
         height="100%"
         width="100%"
         y="0"
         x="0"
         xlink:href="#path887"
         id="use977" /><use
         transform="translate(-1637.6567,280.57849)"
         height="100%"
         width="100%"
         y="0"
         x="0"
         xlink:href="#path887"
         id="use979" /><use
         transform="translate(-1563.2585,237.79182)"
         height="100%"
         width="100%"
         y="0"
         x="0"
         xlink:href="#path887"
         id="use981" /><use
         transform="translate(-1651.7207,149.06709)"
         height="100%"
         width="100%"
         y="0"
         x="0"
         xlink:href="#path887"
         id="use983" /><use
         transform="translate(-2034.6523,-248.13914)"
         height="100%"
         width="100%"
         y="0"
         x="0"
         xlink:href="#path887"
         id="use985" /><use
         transform="translate(-2163.1506,42.299449)"
         height="100%"
         width="100%"
         y="0"
         x="0"
         xlink:href="#path887"
         id="use987" /><use
         transform="translate(-2258.3407,74.688977)"
         height="100%"
         width="100%"
         y="0"
         x="0"
         xlink:href="#path887"
         id="use989" /><use
         transform="translate(-2426.1523,28.947214)"
         height="100%"
         width="100%"
         y="0"
         x="0"
         xlink:href="#path887"
         id="use991" /><use
         transform="translate(-2414.6148,378.08141)"
         height="100%"
         width="100%"
         y="0"
         x="0"
         xlink:href="#path887"
         id="use993" /><use
         transform="translate(-2237.5234,343.4693)"
         height="100%"
         width="100%"
         y="0"
         x="0"
         xlink:href="#path887"
         id="use995" /><use
         transform="translate(-2119.5972,788.48291)"
         height="100%"
         width="100%"
         y="0"
         x="0"
         xlink:href="#path887"
         id="use997" /><use
         transform="translate(-2129.7935,765.33726)"
         height="100%"
         width="100%"
         y="0"
         x="0"
         xlink:href="#path887"
         id="use999" /><use
         transform="translate(-2217.3835,699.13315)"
         height="100%"
         width="100%"
         y="0"
         x="0"
         xlink:href="#path887"
         id="use1001" /><use
         transform="translate(-1852.3853,483.29365)"
         height="100%"
         width="100%"
         y="0"
         x="0"
         xlink:href="#path887"
         id="use1003" /><use
         transform="translate(-2332.7204,292.15752)"
         height="100%"
         width="100%"
         y="0"
         x="0"
         xlink:href="#path887"
         id="use1005" /><use
         transform="translate(-2152.0745,36.659116)"
         height="100%"
         width="100%"
         y="0"
         x="0"
         xlink:href="#path887"
         id="use1007" /><use
         transform="translate(-2443.6804,-147.35212)"
         height="100%"
         width="100%"
         y="0"
         x="0"
         xlink:href="#path887"
         id="use1009" /><use
         transform="translate(-2628.3662,-281.42228)"
         height="100%"
         width="100%"
         y="0"
         x="0"
         xlink:href="#path887"
         id="use1011" /><use
         transform="translate(-2435.4413,-213.05705)"
         height="100%"
         width="100%"
         y="0"
         x="0"
         xlink:href="#path887"
         id="use1013" /><use
         transform="translate(-2535.8241,-312.45525)"
         height="100%"
         width="100%"
         y="0"
         x="0"
         xlink:href="#path887"
         id="use1015" /><use
         transform="translate(-2484.6638,-86.340397)"
         height="100%"
         width="100%"
         y="0"
         x="0"
         xlink:href="#path887"
         id="use1017" /><use
         transform="translate(-2240.4434,321.44981)"
         height="100%"
         width="100%"
         y="0"
         x="0"
         xlink:href="#path887"
         id="use1019" /><use
         transform="translate(-2075.1047,126.57505)"
         height="100%"
         width="100%"
         y="0"
         x="0"
         xlink:href="#path887"
         id="use1021" /><use
         transform="translate(-2249.9118,507.09915)"
         height="100%"
         width="100%"
         y="0"
         x="0"
         xlink:href="#path887"
         id="use1023" /><use
         transform="translate(-2199.4478,536.28603)"
         height="100%"
         width="100%"
         y="0"
         x="0"
         xlink:href="#path887"
         id="use1025" /><use
         transform="translate(-1844.4431,452.25269)"
         height="100%"
         width="100%"
         y="0"
         x="0"
         xlink:href="#path887"
         id="use1027" /><use
         transform="translate(-1865.4545,413.97097)"
         height="100%"
         width="100%"
         y="0"
         x="0"
         xlink:href="#path887"
         id="use1029" /><use
         transform="translate(-2006.131,510.38)"
         height="100%"
         width="100%"
         y="0"
         x="0"
         xlink:href="#path887"
         id="use1031" /><use
         transform="translate(-1947.0656,518.85231)"
         height="100%"
         width="100%"
         y="0"
         x="0"
         xlink:href="#path887"
         id="use1033" /><use
         transform="translate(-2083.6202,114.62727)"
         height="100%"
         width="100%"
         y="0"
         x="0"
         xlink:href="#path887"
         id="use1035" /><use
         transform="translate(-2341.0647,-259.17199)"
         height="100%"
         width="100%"
         y="0"
         x="0"
         xlink:href="#path887"
         id="use1037" /><use
         transform="translate(-2492.6025,-103.6444)"
         height="100%"
         width="100%"
         y="0"
         x="0"
         xlink:href="#path887"
         id="use1039" /><use
         transform="translate(-2446.9944,-314.42942)"
         height="100%"
         width="100%"
         y="0"
         x="0"
         xlink:href="#path887"
         id="use1041" /><use
         transform="translate(-2255.3569,-101.77581)"
         height="100%"
         width="100%"
         y="0"
         x="0"
         xlink:href="#path887"
         id="use1043" /><use
         transform="translate(-2311.0186,140.59736)"
         height="100%"
         width="100%"
         y="0"
         x="0"
         xlink:href="#path887"
         id="use1045" /><use
         transform="translate(-2152.7191,414.36059)"
         height="100%"
         width="100%"
         y="0"
         x="0"
         xlink:href="#path887"
         id="use1047" /><use
         transform="translate(-1727.6669,475.81025)"
         height="100%"
         width="100%"
         y="0"
         x="0"
         xlink:href="#path887"
         id="use1049" /><use
         transform="translate(-1636.0694,593.34337)"
         height="100%"
         width="100%"
         y="0"
         x="0"
         xlink:href="#path887"
         id="use1051" /><use
         transform="translate(-1763.0463,559.56989)"
         height="100%"
         width="100%"
         y="0"
         x="0"
         xlink:href="#path887"
         id="use1053" /><use
         transform="translate(-1726.7746,757.448)"
         height="100%"
         width="100%"
         y="0"
         x="0"
         xlink:href="#path887"
         id="use1055" /><use
         transform="translate(-1844.0125,614.5743)"
         height="100%"
         width="100%"
         y="0"
         x="0"
         xlink:href="#path887"
         id="use1057" /><use
         transform="translate(-1829.9026,552.0631)"
         height="100%"
         width="100%"
         y="0"
         x="0"
         xlink:href="#path887"
         id="use1059" /><use
         transform="translate(-2032.899,234.79226)"
         height="100%"
         width="100%"
         y="0"
         x="0"
         xlink:href="#path887"
         id="use1061" /><use
         transform="translate(-2136.5799,-23.04838)"
         height="100%"
         width="100%"
         y="0"
         x="0"
         xlink:href="#path887"
         id="use1063" /><use
         transform="translate(-2331.4454,31.612116)"
         height="100%"
         width="100%"
         y="0"
         x="0"
         xlink:href="#path887"
         id="use1065" /><use
         transform="translate(-2121.2122,-55.488019)"
         height="100%"
         width="100%"
         y="0"
         x="0"
         xlink:href="#path887"
         id="use1067" /><use
         transform="translate(-2182.9339,-205.47662)"
         height="100%"
         width="100%"
         y="0"
         x="0"
         xlink:href="#path887"
         id="use1069" /><use
         transform="translate(-2109.5433,-183.81065)"
         height="100%"
         width="100%"
         y="0"
         x="0"
         xlink:href="#path887"
         id="use1071" /><use
         transform="translate(-2189.5917,-81.778851)"
         height="100%"
         width="100%"
         y="0"
         x="0"
         xlink:href="#path887"
         id="use1073" /><use
         transform="translate(-2305.7213,151.35786)"
         height="100%"
         width="100%"
         y="0"
         x="0"
         xlink:href="#path887"
         id="use1075" /><use
         transform="translate(-1650.053,549.69897)"
         height="100%"
         width="100%"
         y="0"
         x="0"
         xlink:href="#path887"
         id="use1077" /><use
         transform="translate(-1271.4875,768.20664)"
         height="100%"
         width="100%"
         y="0"
         x="0"
         xlink:href="#path887"
         id="use1079" /><use
         transform="translate(-1072.1527,794.18148)"
         height="100%"
         width="100%"
         y="0"
         x="0"
         xlink:href="#path887"
         id="use1081" /><use
         transform="translate(-1164.1193,660.30269)"
         height="100%"
         width="100%"
         y="0"
         x="0"
         xlink:href="#path887"
         id="use1083" /><use
         transform="translate(-944.54948,423.60202)"
         height="100%"
         width="100%"
         y="0"
         x="0"
         xlink:href="#path887"
         id="use1085" /><use
         transform="translate(-1038.9246,399.20307)"
         height="100%"
         width="100%"
         y="0"
         x="0"
         xlink:href="#path887"
         id="use1087" /><use
         transform="translate(-846.26989,467.04266)"
         height="100%"
         width="100%"
         y="0"
         x="0"
         xlink:href="#path887"
         id="use1089" /><use
         transform="translate(-877.59359,125.61779)"
         height="100%"
         width="100%"
         y="0"
         x="0"
         xlink:href="#path887"
         id="use1091" /><use
         transform="translate(-776.69267,-102.76166)"
         height="100%"
         width="100%"
         y="0"
         x="0"
         xlink:href="#path887"
         id="use1093" /><use
         transform="translate(-553.3244,-17.501425)"
         height="100%"
         width="100%"
         y="0"
         x="0"
         xlink:href="#path887"
         id="use1095" /><use
         transform="translate(-479.45943,156.23585)"
         height="100%"
         width="100%"
         y="0"
         x="0"
         xlink:href="#path887"
         id="use1097" /><use
         transform="translate(-691.43982,-183.25489)"
         height="100%"
         width="100%"
         y="0"
         x="0"
         xlink:href="#path887"
         id="use1099" /><use
         transform="translate(-584.73908,381.31191)"
         height="100%"
         width="100%"
         y="0"
         x="0"
         xlink:href="#path887"
         id="use1101" /><use
         transform="translate(-553.20448,261.38906)"
         height="100%"
         width="100%"
         y="0"
         x="0"
         xlink:href="#path887"
         id="use1103" /><use
         transform="translate(-420.20826,299.77697)"
         height="100%"
         width="100%"
         y="0"
         x="0"
         xlink:href="#path887"
         id="use1105" /><use
         transform="translate(-303.18063,427.24776)"
         height="100%"
         width="100%"
         y="0"
         x="0"
         xlink:href="#path887"
         id="use1107" /><use
         transform="translate(-498.11617,440.78218)"
         height="100%"
         width="100%"
         y="0"
         x="0"
         xlink:href="#path887"
         id="use1109" /><path
         transform="matrix(7.5000002,0,0,-7.5000002,0,2562.6001)"
         id="path1241"
         d="m 386.52595,265.49957 c -5.12554,-2.19035 -7.16387,-7.82494 -8.01542,-22.15725 l -0.53962,-9.08226 -6.38945,9.67163 c -3.51418,5.31939 -6.97461,9.89619 -7.68983,10.17065 -0.71522,0.27445 -39.86214,0.499 -86.99315,0.499 h -85.69274 l -0.0152,-5.87722 c -0.0219,-8.52716 -2.08186,-17.09176 -6.02075,-25.03263 -6.08768,-12.27287 -14.50943,-20.67471 -26.61539,-26.55242 -13.5953,-6.60083 -28.37541,-7.66042 -42.84383,-3.07151 -23.628509,7.49421 -40.307993,30.36615 -40.307993,55.27288 v 5.2609 H 56.399001 c -18.738478,0 -19.030042,-0.0281 -20.896802,-2.01519 -4.141689,-4.40862 -4.270225,-4.19776 30.874807,-50.64894 l 32.767982,-43.30944 -0.534231,-5.72096 c -0.842117,-9.01804 -3.531795,-15.85443 -8.448032,-21.47249 -5.559412,-6.35306 -5.803023,-10.52532 -0.766623,-13.12974 2.121691,-1.09717 16.909808,-1.27385 106.622218,-1.27385 h 104.15889 l 2.54511,2.54512 c 2.51257,2.51257 3.13482,4.75757 1.86986,6.74619 -0.35675,0.56081 -5.47384,6.0241 -11.37133,12.14065 -23.24214,24.10541 -34.31372,43.31811 -34.39015,59.67781 -0.0899,19.25235 15.82701,31.03261 45.93185,33.99454 10.99596,1.08186 30.21885,0.0604 40.7556,-2.16569 l 4.98734,-1.05366 28.31693,-44.2111 c 15.57432,-24.31611 28.32592,-44.49459 28.3369,-44.84106 0.029,-0.91501 -24.588,-70.173542 -25.1948,-70.884153 -0.28095,-0.32901 -7.90092,-1.090524 -16.93327,-1.692254 -13.99421,-0.932287 -16.74559,-1.348238 -18.60789,-2.813117 -4.43241,-3.486537 -5.97762,-11.35467 -2.84511,-14.487181 1.65903,-1.659022 2.90233,-1.7414 26.28256,-1.7414 23.09014,0 24.64744,0.09988 26.33868,1.689186 0.98864,0.929052 5.71567,10.914233 10.50452,22.189292 l 8.707,20.500104 8.05398,0.01356 8.05397,0.01356 v 11.754453 11.75445 h -2.6121 c -1.43665,0 -2.6121,0.35706 -2.6121,0.79348 0,0.43641 1.95908,5.36885 4.3535,10.96097 2.39443,5.59213 4.3535,10.72908 4.3535,11.41545 0,2.21725 -4.93595,12.21666 -11.69177,23.68557 -3.62611,6.15582 -6.59293,11.4613 -6.59293,11.78996 0,0.32866 1.46931,-0.14882 3.26512,-1.06108 1.79582,-0.91225 6.59556,-2.75688 10.66608,-4.09917 6.77921,-2.23549 8.53473,-2.44509 20.8968,-2.49487 15.53483,-0.0626 20.38986,0.92462 32.21591,6.55056 17.358,8.25761 30.63519,22.46784 37.41225,40.04136 3.53744,9.17287 3.4746,12.33617 -0.32043,16.1312 -5.58076,5.58076 -13.11002,3.18257 -15.77386,-5.02423 -6.1423,-18.92322 -20.90115,-33.0397 -39.60267,-37.87897 -7.31511,-1.89289 -19.61172,-1.84936 -26.92208,0.0953 -19.6008,5.21408 -34.55554,20.32764 -39.65291,40.07401 -1.5876,6.15014 -1.73901,17.69246 -0.33222,25.32736 0.80108,4.34764 0.77373,6.03139 -0.13358,8.22181 -1.94567,4.69728 -7.20438,6.82153 -11.90952,4.81085 z"
         style="opacity:0.98400005;fill:none;fill-opacity:0.4879227;stroke:none;stroke-width:0.87070006;stroke-opacity:1" /><path
         transform="matrix(7.5000002,0,0,-7.5000002,0,2562.6001)"
         id="path1243"
         d="m 386.52595,265.49957 c -5.12554,-2.19035 -7.16387,-7.82494 -8.01542,-22.15725 l -0.53962,-9.08226 -6.38945,9.67163 c -3.51418,5.31939 -6.97461,9.89619 -7.68983,10.17065 -0.71522,0.27445 -39.86214,0.499 -86.99315,0.499 h -85.69274 l -0.0152,-5.87722 c -0.0219,-8.52716 -2.08186,-17.09176 -6.02075,-25.03263 -6.08768,-12.27287 -14.50943,-20.67471 -26.61539,-26.55242 -13.5953,-6.60083 -28.37541,-7.66042 -42.84383,-3.07151 -23.628509,7.49421 -40.307993,30.36615 -40.307993,55.27288 v 5.2609 H 56.399001 c -18.738478,0 -19.030042,-0.0281 -20.896802,-2.01519 -4.141689,-4.40862 -4.270225,-4.19776 30.874807,-50.64894 l 32.767982,-43.30944 -0.534231,-5.72096 c -0.842117,-9.01804 -3.531795,-15.85443 -8.448032,-21.47249 -5.559412,-6.35306 -5.803023,-10.52532 -0.766623,-13.12974 2.121691,-1.09717 16.909808,-1.27385 106.622218,-1.27385 h 104.15889 l 2.54511,2.54512 c 2.51257,2.51257 3.13482,4.75757 1.86986,6.74619 -0.35675,0.56081 -5.47384,6.0241 -11.37133,12.14065 -23.24214,24.10541 -34.31372,43.31811 -34.39015,59.67781 -0.0899,19.25235 15.82701,31.03261 45.93185,33.99454 10.99596,1.08186 30.21885,0.0604 40.7556,-2.16569 l 4.98734,-1.05366 28.31693,-44.2111 c 15.57432,-24.31611 28.32592,-44.49459 28.3369,-44.84106 0.029,-0.91501 -24.588,-70.173542 -25.1948,-70.884153 -0.28095,-0.32901 -7.90092,-1.090524 -16.93327,-1.692254 -13.99421,-0.932287 -16.74559,-1.348238 -18.60789,-2.813117 -4.43241,-3.486537 -5.97762,-11.35467 -2.84511,-14.487181 1.65903,-1.659022 2.90233,-1.7414 26.28256,-1.7414 23.09014,0 24.64744,0.09988 26.33868,1.689186 0.98864,0.929052 5.71567,10.914233 10.50452,22.189292 l 8.707,20.500104 8.05398,0.01356 8.05397,0.01356 v 11.754453 11.75445 h -2.6121 c -1.43665,0 -2.6121,0.35706 -2.6121,0.79348 0,0.43641 1.95908,5.36885 4.3535,10.96097 2.39443,5.59213 4.3535,10.72908 4.3535,11.41545 0,2.21725 -4.93595,12.21666 -11.69177,23.68557 -3.62611,6.15582 -6.59293,11.4613 -6.59293,11.78996 0,0.32866 1.46931,-0.14882 3.26512,-1.06108 1.79582,-0.91225 6.59556,-2.75688 10.66608,-4.09917 6.77921,-2.23549 8.53473,-2.44509 20.8968,-2.49487 15.53483,-0.0626 20.38986,0.92462 32.21591,6.55056 17.358,8.25761 30.63519,22.46784 37.41225,40.04136 3.53744,9.17287 3.4746,12.33617 -0.32043,16.1312 -5.58076,5.58076 -13.11002,3.18257 -15.77386,-5.02423 -6.1423,-18.92322 -20.90115,-33.0397 -39.60267,-37.87897 -7.31511,-1.89289 -19.61172,-1.84936 -26.92208,0.0953 -19.6008,5.21408 -34.55554,20.32764 -39.65291,40.07401 -1.5876,6.15014 -1.73901,17.69246 -0.33222,25.32736 0.80108,4.34764 0.77373,6.03139 -0.13358,8.22181 -1.94567,4.69728 -7.20438,6.82153 -11.90952,4.81085 z"
         style="opacity:0.98400005;fill:none;fill-opacity:0.4879227;stroke:none;stroke-width:0.87070006;stroke-opacity:1" /><path
         transform="matrix(7.5000002,0,0,-7.5000002,0,2562.6001)"
         id="path1245"
         d="m 386.52595,265.49957 c -5.12554,-2.19035 -7.16387,-7.82494 -8.01542,-22.15725 l -0.53962,-9.08226 -6.38945,9.67163 c -3.51418,5.31939 -6.97461,9.89619 -7.68983,10.17065 -0.71522,0.27445 -39.86214,0.499 -86.99315,0.499 h -85.69274 l -0.0152,-5.87722 c -0.0219,-8.52716 -2.08186,-17.09176 -6.02075,-25.03263 -6.08768,-12.27287 -14.50943,-20.67471 -26.61539,-26.55242 -13.5953,-6.60083 -28.37541,-7.66042 -42.84383,-3.07151 -23.628509,7.49421 -40.307993,30.36615 -40.307993,55.27288 v 5.2609 H 56.399001 c -18.738478,0 -19.030042,-0.0281 -20.896802,-2.01519 -4.141689,-4.40862 -4.270225,-4.19776 30.874807,-50.64894 l 32.767982,-43.30944 -0.534231,-5.72096 c -0.842117,-9.01804 -3.531795,-15.85443 -8.448032,-21.47249 -5.559412,-6.35306 -5.803023,-10.52532 -0.766623,-13.12974 2.121691,-1.09717 16.909808,-1.27385 106.622218,-1.27385 h 104.15889 l 2.54511,2.54512 c 2.51257,2.51257 3.13482,4.75757 1.86986,6.74619 -0.35675,0.56081 -5.47384,6.0241 -11.37133,12.14065 -23.24214,24.10541 -34.31372,43.31811 -34.39015,59.67781 -0.0899,19.25235 15.82701,31.03261 45.93185,33.99454 10.99596,1.08186 30.21885,0.0604 40.7556,-2.16569 l 4.98734,-1.05366 28.31693,-44.2111 c 15.57432,-24.31611 28.32592,-44.49459 28.3369,-44.84106 0.029,-0.91501 -24.588,-70.173542 -25.1948,-70.884153 -0.28095,-0.32901 -7.90092,-1.090524 -16.93327,-1.692254 -13.99421,-0.932287 -16.74559,-1.348238 -18.60789,-2.813117 -4.43241,-3.486537 -5.97762,-11.35467 -2.84511,-14.487181 1.65903,-1.659022 2.90233,-1.7414 26.28256,-1.7414 23.09014,0 24.64744,0.09988 26.33868,1.689186 0.98864,0.929052 5.71567,10.914233 10.50452,22.189292 l 8.707,20.500104 8.05398,0.01356 8.05397,0.01356 v 11.754453 11.75445 h -2.6121 c -1.43665,0 -2.6121,0.35706 -2.6121,0.79348 0,0.43641 1.95908,5.36885 4.3535,10.96097 2.39443,5.59213 4.3535,10.72908 4.3535,11.41545 0,2.21725 -4.93595,12.21666 -11.69177,23.68557 -3.62611,6.15582 -6.59293,11.4613 -6.59293,11.78996 0,0.32866 1.46931,-0.14882 3.26512,-1.06108 1.79582,-0.91225 6.59556,-2.75688 10.66608,-4.09917 6.77921,-2.23549 8.53473,-2.44509 20.8968,-2.49487 15.53483,-0.0626 20.38986,0.92462 32.21591,6.55056 17.358,8.25761 30.63519,22.46784 37.41225,40.04136 3.53744,9.17287 3.4746,12.33617 -0.32043,16.1312 -5.58076,5.58076 -13.11002,3.18257 -15.77386,-5.02423 -6.1423,-18.92322 -20.90115,-33.0397 -39.60267,-37.87897 -7.31511,-1.89289 -19.61172,-1.84936 -26.92208,0.0953 -19.6008,5.21408 -34.55554,20.32764 -39.65291,40.07401 -1.5876,6.15014 -1.73901,17.69246 -0.33222,25.32736 0.80108,4.34764 0.77373,6.03139 -0.13358,8.22181 -1.94567,4.69728 -7.20438,6.82153 -11.90952,4.81085 z"
         style="opacity:0.98400005;fill:none;fill-opacity:0.4879227;stroke:none;stroke-width:0.87070006;stroke-opacity:1" /><path
         transform="matrix(7.5000002,0,0,-7.5000002,0,2562.6001)"
         id="path1247"
         d="m 386.52595,265.49957 c -5.12554,-2.19035 -7.16387,-7.82494 -8.01542,-22.15725 l -0.53962,-9.08226 -6.38945,9.67163 c -3.51418,5.31939 -6.97461,9.89619 -7.68983,10.17065 -0.71522,0.27445 -39.86214,0.499 -86.99315,0.499 h -85.69274 l -0.0152,-5.87722 c -0.0219,-8.52716 -2.08186,-17.09176 -6.02075,-25.03263 -6.08768,-12.27287 -14.50943,-20.67471 -26.61539,-26.55242 -13.5953,-6.60083 -28.37541,-7.66042 -42.84383,-3.07151 -23.628509,7.49421 -40.307993,30.36615 -40.307993,55.27288 v 5.2609 H 56.399001 c -18.738478,0 -19.030042,-0.0281 -20.896802,-2.01519 -4.141689,-4.40862 -4.270225,-4.19776 30.874807,-50.64894 l 32.767982,-43.30944 -0.534231,-5.72096 c -0.842117,-9.01804 -3.531795,-15.85443 -8.448032,-21.47249 -5.559412,-6.35306 -5.803023,-10.52532 -0.766623,-13.12974 2.121691,-1.09717 16.909808,-1.27385 106.622218,-1.27385 h 104.15889 l 2.54511,2.54512 c 2.51257,2.51257 3.13482,4.75757 1.86986,6.74619 -0.35675,0.56081 -5.47384,6.0241 -11.37133,12.14065 -23.24214,24.10541 -34.31372,43.31811 -34.39015,59.67781 -0.0899,19.25235 15.82701,31.03261 45.93185,33.99454 10.99596,1.08186 30.21885,0.0604 40.7556,-2.16569 l 4.98734,-1.05366 28.31693,-44.2111 c 15.57432,-24.31611 28.32592,-44.49459 28.3369,-44.84106 0.029,-0.91501 -24.588,-70.173542 -25.1948,-70.884153 -0.28095,-0.32901 -7.90092,-1.090524 -16.93327,-1.692254 -13.99421,-0.932287 -16.74559,-1.348238 -18.60789,-2.813117 -4.43241,-3.486537 -5.97762,-11.35467 -2.84511,-14.487181 1.65903,-1.659022 2.90233,-1.7414 26.28256,-1.7414 23.09014,0 24.64744,0.09988 26.33868,1.689186 0.98864,0.929052 5.71567,10.914233 10.50452,22.189292 l 8.707,20.500104 8.05398,0.01356 8.05397,0.01356 v 11.754453 11.75445 h -2.6121 c -1.43665,0 -2.6121,0.35706 -2.6121,0.79348 0,0.43641 1.95908,5.36885 4.3535,10.96097 2.39443,5.59213 4.3535,10.72908 4.3535,11.41545 0,2.21725 -4.93595,12.21666 -11.69177,23.68557 -3.62611,6.15582 -6.59293,11.4613 -6.59293,11.78996 0,0.32866 1.46931,-0.14882 3.26512,-1.06108 1.79582,-0.91225 6.59556,-2.75688 10.66608,-4.09917 6.77921,-2.23549 8.53473,-2.44509 20.8968,-2.49487 15.53483,-0.0626 20.38986,0.92462 32.21591,6.55056 17.358,8.25761 30.63519,22.46784 37.41225,40.04136 3.53744,9.17287 3.4746,12.33617 -0.32043,16.1312 -5.58076,5.58076 -13.11002,3.18257 -15.77386,-5.02423 -6.1423,-18.92322 -20.90115,-33.0397 -39.60267,-37.87897 -7.31511,-1.89289 -19.61172,-1.84936 -26.92208,0.0953 -19.6008,5.21408 -34.55554,20.32764 -39.65291,40.07401 -1.5876,6.15014 -1.73901,17.69246 -0.33222,25.32736 0.80108,4.34764 0.77373,6.03139 -0.13358,8.22181 -1.94567,4.69728 -7.20438,6.82153 -11.90952,4.81085 z"
         style="opacity:0.98400005;fill:none;fill-opacity:0.4879227;stroke:none;stroke-width:0.87070006;stroke-opacity:1" /><path
         transform="matrix(7.5000002,0,0,-7.5000002,0,2562.6001)"
         id="path1249"
         d="m 369.91933,255.95897 c -1.38909,-1.16886 -2.98301,-3.65177 -3.54202,-5.5176 -1.34227,-4.4801 -2.74033,-18.27887 -2.15887,-21.308 0.84007,-4.37641 -1.24088,-2.49567 -6.74374,6.0949 -2.99089,4.66913 -6.26366,9.16628 -7.2728,9.99368 -1.71056,1.40251 -7.65321,1.50568 -87.76169,1.52373 l -85.92689,0.0194 0.48729,-3.00285 c 0.68134,-4.19859 -1.22517,-16.27648 -3.60356,-22.82889 -5.7861,-15.94053 -18.27591,-28.33847 -34.69878,-34.44355 -9.31548,-3.46297 -22.21853,-4.26977 -32.32521,-2.02125 -16.449551,3.65967 -31.491141,15.36173 -38.665047,30.08064 -4.61072,9.45995 -6.236587,15.97685 -6.236587,24.99789 v 7.21801 H 43.227693 c -11.704588,0 -19.017541,-0.35257 -20.402602,-0.98364 -2.968081,-1.35235 -4.571205,-5.38122 -3.274056,-8.22815 0.543225,-1.19225 15.546871,-21.40509 33.341436,-44.91744 l 32.353755,-42.74971 -1.062475,-7.06765 c -1.298063,-8.63481 -4.287583,-15.50858 -8.75408,-20.12817 -4.340939,-4.48973 -4.954561,-8.56833 -1.768444,-11.75445 1.722263,-1.72226 2.902333,-1.7414 107.379693,-1.7414 H 286.6792 l 1.89318,2.01519 c 1.10976,1.18129 1.89317,3.14085 1.89317,4.73541 0,2.29344 -1.49153,4.22838 -9.50717,12.33347 -25.79457,26.08247 -37.78093,47.16401 -36.42444,64.06307 1.13943,14.1948 11.59894,24.1245 30.87205,29.30826 9.8636,2.65295 35.77666,3.16244 50.20959,0.9872 l 10.33508,-1.55764 28.6417,-44.70767 28.64171,-44.70766 -12.67853,-35.364616 c -6.97321,-19.450536 -12.81878,-35.504847 -12.99018,-35.676246 -0.1714,-0.1714 -7.89058,-0.898575 -17.15374,-1.615945 -17.99554,-1.393634 -18.723,-1.618502 -21.28906,-6.580709 -1.29365,-2.501643 -1.61691,-8.330974 -0.55055,-9.927998 1.75588,-2.62967 4.821,-2.960122 27.45673,-2.960122 21.62101,0 23.14604,0.104353 25.20606,1.724773 1.50935,1.187249 4.98411,8.242422 11.14961,22.638202 l 8.9569,20.913429 h 8.12323 8.12322 v 11.701891 11.701891 l -2.98579,0.27024 -2.98578,0.27023 4.73188,11.05727 4.73189,11.05726 -1.80481,4.57885 c -1.99463,5.06039 -5.76993,12.05813 -12.72667,23.58955 -2.52791,4.19024 -4.26008,7.61863 -3.84927,7.61863 0.4108,0 2.88643,-0.97951 5.50138,-2.17668 2.61496,-1.19716 7.85386,-2.97049 11.642,-3.94071 35.99314,-9.21866 72.90835,9.82244 86.97747,44.86354 4.20459,10.47214 2.89146,16.78704 -3.91475,18.82623 -2.79769,0.83821 -3.81139,0.73948 -6.64114,-0.64687 -2.65426,-1.30035 -3.67844,-2.52937 -4.99131,-5.98956 -7.72745,-20.3665 -18.32236,-31.44036 -36.00257,-37.63012 -5.89686,-2.06447 -8.12383,-2.37419 -17.22108,-2.39508 -12.10516,-0.0278 -18.69933,1.68788 -28.35894,7.37844 -20.00102,11.78279 -31.04301,38.31573 -25.11459,60.34816 2.49993,9.29076 -7.5752,16.61937 -14.65635,10.66098 z"
         style="opacity:0.98400005;fill:none;fill-opacity:0.4879227;stroke:none;stroke-width:0.87070006;stroke-opacity:1" /><path
         transform="matrix(7.5000002,0,0,-7.5000002,0,2562.6001)"
         id="path1303"
         d="m 129.67099,108.54151 c 28.65039,-0.12734 75.27638,-0.12732 103.61331,6e-5 28.33693,0.12737 4.89571,0.23156 -52.09161,0.23153 -56.98732,-3e-5 -80.17209,-0.10425 -51.5217,-0.23159 z"
         style="opacity:0.98400005;fill:#ccc2c4;fill-opacity:1;fill-rule:nonzero;stroke:none;stroke-width:0.87070006;stroke-opacity:1" /><path
         transform="matrix(7.5000002,0,0,-7.5000002,0,2562.6001)"
         id="path1305"
         d="m 239.74727,108.5428 c 8.26076,-0.1431 21.77838,-0.1431 30.03915,0 8.26077,0.14311 1.50196,0.2602 -15.01958,0.2602 -16.52153,0 -23.28034,-0.11709 -15.01957,-0.2602 z"
         style="opacity:0.98400005;fill:#ccc2c4;fill-opacity:1;fill-rule:nonzero;stroke:none;stroke-width:0.87070006;stroke-opacity:1" /><path
         id="path1309"
         d="m 2774.3951,642.90777 c -10.4182,8.76645 -22.3726,27.38828 -26.5652,41.38201 -10.067,33.60075 -20.5525,137.09152 -16.1915,159.81 6.3005,32.82308 -9.3066,18.71753 -50.5781,-45.71175 -22.4316,-35.01848 -46.9774,-68.7471 -54.546,-74.9526 -12.8292,-10.51883 -57.399,-11.2926 -658.2126,-11.42798 l -644.4517,-0.1455 3.6546,22.52138 c 5.1101,31.48942 -9.1887,122.0736 -27.0267,171.21668 -43.3957,119.55399 -137.0693,212.53849 -260.2408,258.32659 -69.86609,25.9723 -166.63899,32.0233 -242.43909,15.1594 -123.3716,-27.4475 -236.1836,-115.213 -289.9879,-225.60479 -34.5804,-70.94963 -46.7744,-119.82638 -46.7744,-187.48418 v -54.13508 h -136.828 c -87.7844,0 -142.63153,2.64428 -153.01949,7.3773 -22.2606,10.14263 -34.28403,40.35915 -24.55542,61.71113 4.07419,8.94187 116.60151,160.53818 250.06081,336.88082 l 242.6531,320.6228 -7.9685,53.0074 c -9.7355,64.7611 -32.1569,116.3144 -65.6556,150.9613 -32.5571,33.673 -37.1592,64.2625 -13.2634,88.1584 12.917,12.9169 21.7675,13.0605 805.34779,13.0605 h 792.2871 l 14.1988,-15.114 c 8.3232,-8.8596 14.1988,-23.5563 14.1988,-35.5155 0,-17.2008 -11.1865,-31.7129 -71.3038,-92.5011 -193.4592,-195.6185 -283.3569,-353.7301 -273.1833,-480.473 8.5458,-106.461 86.9921,-180.93377 231.5404,-219.81197 73.977,-19.89712 268.325,-23.7183 376.5719,-7.404 l 77.5131,11.6823 214.8128,335.30757 214.8128,335.3074 -95.0889,265.2347 c -52.2991,145.879 -96.1409,266.2863 -97.4264,267.5718 -1.2855,1.2855 -59.1794,6.7393 -128.6531,12.1196 -134.9665,10.4523 -140.4225,12.1388 -159.6679,49.3553 -9.7024,18.7623 -12.1268,62.4823 -4.1291,74.46 13.1691,19.7225 36.1575,22.2009 205.9254,22.2009 162.1576,0 173.5954,-0.7826 189.0455,-12.9358 11.3201,-8.9043 37.3808,-61.8181 83.6221,-169.7865 l 67.1767,-156.8507 h 60.9243 60.9241 v -87.7642 -87.7642 l -22.3934,-2.0268 -22.3934,-2.0267 35.4891,-82.9295 35.4892,-82.9295 -13.5361,-34.3414 c -14.9597,-37.9529 -43.2744,-90.4359 -95.45,-176.9216 -18.9593,-31.4268 -31.9506,-57.1397 -28.8695,-57.1397 3.081,0 21.6482,7.3463 41.2603,16.3251 19.6122,8.9787 58.904,22.2786 87.315,29.5553 269.9486,69.14 546.8127,-73.6683 652.3311,-336.4766 31.5344,-78.54102 21.6859,-125.90277 -29.3606,-141.19669 -20.9827,-6.28658 -28.5855,-5.5461 -49.8086,4.85152 -19.9069,9.75263 -27.5883,18.97028 -37.4348,44.9217 -57.9559,152.74877 -137.4177,235.80267 -270.0193,282.22587 -44.2265,15.4836 -60.9287,17.8065 -129.1581,17.9631 -90.7887,0.2085 -140.245,-12.6591 -212.6921,-55.3383 -150.0076,-88.3709 -232.8225,-287.36794 -188.3594,-452.61117 18.7495,-69.68071 -56.814,-124.64528 -109.9226,-79.95736 z"
         style="opacity:0.98400005;fill:#ccc2c4;fill-opacity:1;fill-rule:nonzero;stroke:none;stroke-width:6.53025055;stroke-opacity:1" /><path
         id="path1311"
         d="m 817.66855,391.27919 c -132.55775,26.29008 -250.8385,139.27614 -284.8769,272.12478 -15.10493,58.95313 -16.09448,106.7544 -3.44771,166.54428 30.20398,142.79478 134.48767,251.54265 275.67988,287.48095 222.58428,56.6557 449.15918,-112.2618 458.80258,-342.04926 2.7219,-64.86051 -5.3604,-107.66222 -32.213,-170.5903 C 1190.8936,509.3643 1102.2702,430.68844 1000.859,399.93645 954.06945,385.74798 866.43845,381.60666 817.66855,391.27919 Z"
         style="opacity:0.98400005;fill:#ccc2c4;fill-opacity:1;fill-rule:nonzero;stroke:none;stroke-width:6.53025055;stroke-opacity:1" /><path
         transform="matrix(7.5000002,0,0,-7.5000002,0,2562.6001)"
         id="path1313"
         d="m 428.03616,288.92527 c -15.9464,-4.19625 -28.42676,-15.85661 -34.64876,-32.37221 -3.07462,-8.16124 -3.24207,-21.30341 -0.38736,-30.40216 5.23437,-16.6834 20.10364,-30.18702 37.21287,-33.7951 11.50506,-2.42625 20.33368,-1.3164 31.68649,3.98333 13.206,6.16482 24.12023,19.78988 27.00133,33.70779 1.35541,6.54763 1.18262,17.22028 -0.37563,23.20284 -4.43917,17.04312 -18.70838,31.26067 -35.79967,35.67007 -6.5673,1.6943 -18.26154,1.69688 -24.68927,0.005 z"
         style="opacity:0.98400005;fill:#ccc2c4;fill-opacity:1;fill-rule:nonzero;stroke:none;stroke-width:0.87070006;stroke-opacity:1" /><path
         transform="matrix(7.5000002,0,0,-7.5000002,0,2562.6001)"
         id="path1315"
         d="M 93.687329,76.107827 V 47.374725 h 22.202851 22.20285 v 6.9656 6.965601 h 5.65955 5.65955 v -6.965601 -6.9656 h 22.20286 22.20285 V 76.107827 104.84093 H 143.75258 93.687329 Z"
         style="opacity:0.98400005;fill:#ccc2c4;fill-opacity:1;fill-rule:nonzero;stroke:none;stroke-width:0.87070006;stroke-opacity:1" /><path
         transform="matrix(7.5000002,0,0,-7.5000002,0,2562.6001)"
         id="path1317"
         d="m 93.687329,22.559772 v -9.142351 h 50.065251 50.06526 v 9.142351 9.142351 h -22.20285 -22.20286 v -3.4828 -3.482801 h -5.65955 -5.65955 v 3.482801 3.4828 H 115.89018 93.687329 Z"
         style="opacity:0.98400005;fill:#ccc2c4;fill-opacity:1;fill-rule:nonzero;stroke:none;stroke-width:0.87070006;stroke-opacity:1" /></g></g></svg>